<?xml version="1.0" encoding="utf-8"?>
<!-- Generator: Adobe Illustrator 24.0.2, SVG Export Plug-In . SVG Version: 6.00 Build 0)  -->
<svg version="1.1" id="Capa_1" xmlns="http://www.w3.org/2000/svg" xmlns:xlink="http://www.w3.org/1999/xlink" x="0px" y="0px"
	 viewBox="0 0 550 200" style="enable-background:new 0 0 550 200;" xml:space="preserve">
<style type="text/css">
	.st0{fill-rule:evenodd;clip-rule:evenodd;fill:#2CB1FF;}
	.st1{fill-rule:evenodd;clip-rule:evenodd;fill:#666666;}
	.st2{fill:#666666;}
	.st3{fill:#2CB1FF;}
</style>
<g id="Capa_x0020_1">
	<path class="st0" d="M165.9,99.4c0,39.2-31.7,70.9-70.9,70.9c-39.1,0-70.9-31.7-70.9-70.9c0-16.8,5.8-32.1,15.5-44.3
		C23.5,70,13.3,91.4,13.3,115.1c0,45.1,36.6,81.7,81.7,81.7s81.7-36.6,81.7-81.7c0-23.8-10.1-45.1-26.3-60
		C160.1,67.2,165.9,82.6,165.9,99.4L165.9,99.4z"/>
	<path class="st1" d="M157.3,98.8c0-34.8-28.2-63-63-63s-63,28.2-63,63c0,20.1,9.4,38,24,49.5c-11.5-10.5-18.7-25.7-18.7-42.5
		C36.6,73.8,62.5,48,94.3,48S152,73.8,152,105.7c0,16.8-7.2,32-18.7,42.5C147.9,136.7,157.3,118.8,157.3,98.8L157.3,98.8z"/>
	<g id="_2182647769248">
		<path class="st2" d="M62.7,123.3c4.1,3.3,8.9,5,14.4,5c7.1,0,10.6-2.4,10.6-7.3c0-1.4-0.4-2.7-1.2-3.8c-0.8-1.1-1.8-2.1-3.1-3
			c-1.3-0.8-3.9-2.2-7.8-4c-4.8-2.3-8.1-4.6-10-7c-1.9-2.4-2.9-5.1-2.9-8.3c0-4.6,1.8-8.2,5.4-10.8c3.6-2.6,8.3-4,13.9-4
			c5.3,0,9.4,0.6,12.1,2v8.5c-3.3-2.3-7.4-3.4-12.3-3.4c-3.1,0-5.7,0.6-7.6,1.9c-1.9,1.3-2.9,3-2.9,5.2c0,2,0.7,3.6,2.1,4.9
			c1.4,1.3,4.4,3,8.9,5.1c5.3,2.5,9,5,11,7.5s3,5.3,3,8.6c0,4.8-1.8,8.5-5.2,11c-3.5,2.5-8.3,3.8-14.5,3.8c-2.3,0-4.8-0.3-7.6-0.8
			c-2.8-0.5-4.9-1.3-6.4-2.2V123.3L62.7,123.3z"/>
		<path class="st3" d="M96.8,123.3c4.1,3.3,8.9,5,14.4,5c7.1,0,10.6-2.4,10.6-7.3c0-1.4-0.4-2.7-1.2-3.8c-0.8-1.1-1.8-2.1-3.1-3
			c-1.3-0.8-3.9-2.2-7.8-4c-4.8-2.3-8.1-4.6-10-7c-1.9-2.4-2.9-5.1-2.9-8.3c0-4.6,1.8-8.2,5.4-10.8c3.6-2.6,8.3-4,13.9-4
			c5.3,0,9.4,0.6,12.1,2v8.5c-3.3-2.3-7.4-3.4-12.3-3.4c-3.1,0-5.7,0.6-7.6,1.9c-1.9,1.3-2.9,3-2.9,5.2c0,2,0.7,3.6,2.1,4.9
			c1.4,1.3,4.4,3,8.9,5.1c5.3,2.5,9,5,11,7.5c2,2.5,3,5.3,3,8.6c0,4.8-1.8,8.5-5.2,11c-3.5,2.5-8.3,3.8-14.5,3.8
			c-2.3,0-4.8-0.3-7.6-0.8c-2.8-0.5-4.9-1.3-6.4-2.2V123.3L96.8,123.3z"/>
	</g>
	<polygon class="st0" points="114.1,11.9 116.8,20.6 125.5,23.3 116.8,26 114.1,34.7 111.4,26 102.7,23.3 111.4,20.6 	"/>
	<polygon class="st0" points="129.7,3.2 131.5,9.1 137.4,10.9 131.5,12.7 129.7,18.7 127.8,12.7 121.9,10.9 127.8,9.1 	"/>
	<polygon class="st0" points="145.8,13.2 149.8,26.4 163,30.4 149.8,34.4 145.8,47.6 141.7,34.4 128.6,30.4 141.7,26.4 	"/>
	<g id="_2182647781344">
		<path class="st2" d="M207.7,91.1c3.6,2.9,7.8,4.4,12.6,4.4c6.2,0,9.3-2.1,9.3-6.4c0-1.2-0.3-2.3-1-3.3c-0.7-1-1.6-1.8-2.8-2.6
			c-1.2-0.7-3.4-1.9-6.9-3.5c-4.2-2-7.1-4-8.8-6.1s-2.5-4.5-2.5-7.3c0-4,1.6-7.2,4.8-9.5c3.2-2.3,7.2-3.5,12.1-3.5
			c4.7,0,8.2,0.6,10.6,1.7v7.4c-2.9-2-6.5-3-10.7-3c-2.7,0-5,0.5-6.6,1.7c-1.7,1.1-2.5,2.6-2.5,4.5c0,1.8,0.6,3.2,1.9,4.3
			c1.2,1.1,3.8,2.6,7.8,4.5c4.6,2.2,7.8,4.3,9.6,6.5c1.8,2.2,2.6,4.7,2.6,7.5c0,4.2-1.5,7.4-4.6,9.7c-3,2.2-7.3,3.3-12.6,3.3
			c-2,0-4.2-0.2-6.6-0.7c-2.4-0.5-4.3-1.1-5.6-1.9V91.1z M242.9,84.5c0-5.5,1.5-9.8,4.7-13c3.1-3.2,7.4-4.7,12.7-4.7
			c5.1,0,9.1,1.5,12,4.6c3,3.1,4.4,7.3,4.4,12.6c0,5.4-1.5,9.6-4.7,12.8c-3.1,3.2-7.3,4.8-12.4,4.8c-5.1,0-9.2-1.5-12.2-4.7
			C244.4,93.8,242.9,89.7,242.9,84.5z M250.1,84.3c0,3.6,0.9,6.5,2.7,8.5c1.8,2,4.2,3.1,7.2,3.1c6.4,0,9.6-3.9,9.6-11.8
			c0-3.8-0.8-6.7-2.5-8.7c-1.6-2-4-3-7.1-3c-3.1,0-5.5,1.1-7.3,3.2C251,77.7,250.1,80.6,250.1,84.3L250.1,84.3z M284.5,100.8V51.6
			h7.1v49.2H284.5L284.5,100.8z M330.1,100.8h-7v-5.2h-0.2c-2.3,4-5.7,6-10.2,6c-7.8,0-11.8-4.7-11.8-14.1V67.5h7v19.1
			c0,6.2,2.4,9.3,7.2,9.3c2.3,0,4.2-0.9,5.7-2.6c1.5-1.7,2.2-3.9,2.2-6.7V67.5h7V100.8z M363.7,99.4c-2.4,1.5-5.6,2.2-9.4,2.2
			c-4.8,0-8.8-1.5-11.8-4.6c-3-3.1-4.5-7.1-4.5-12c0-5.6,1.6-10,4.8-13.3c3.2-3.3,7.5-4.9,12.9-4.9c3.3,0,6,0.5,8,1.6v6.6
			c-2.4-1.7-4.9-2.6-7.7-2.6c-3.3,0-5.9,1.1-7.9,3.3c-2,2.2-3,5.1-3,8.8c0,3.6,1,6.4,2.9,8.4c1.9,2,4.5,3,7.7,3
			c2.8,0,5.5-0.9,7.9-2.7L363.7,99.4L363.7,99.4z M370.5,56.1c0-1.2,0.4-2.2,1.2-2.9s1.8-1.2,3.1-1.2c1.2,0,2.3,0.4,3.1,1.2
			c0.8,0.8,1.3,1.8,1.3,2.9c0,1.2-0.4,2.2-1.3,2.9c-0.8,0.8-1.9,1.2-3.1,1.2c-1.2,0-2.3-0.4-3.1-1.2
			C370.9,58.2,370.5,57.3,370.5,56.1L370.5,56.1z M371.2,100.8V67.5h7.1v33.3H371.2z M386.1,84.5c0-5.5,1.5-9.8,4.7-13
			c3.1-3.2,7.3-4.7,12.7-4.7c5.1,0,9.1,1.5,12,4.6c3,3.1,4.4,7.3,4.4,12.6c0,5.4-1.5,9.6-4.7,12.8c-3.1,3.2-7.3,4.8-12.5,4.8
			c-5.1,0-9.2-1.5-12.2-4.7C387.6,93.8,386.1,89.7,386.1,84.5z M393.3,84.3c0,3.6,0.9,6.5,2.7,8.5c1.8,2,4.2,3.1,7.2,3.1
			c6.4,0,9.6-3.9,9.6-11.8c0-3.8-0.8-6.7-2.5-8.7c-1.7-2-4-3-7.1-3c-3.1,0-5.5,1.1-7.3,3.2C394.1,77.7,393.3,80.6,393.3,84.3
			L393.3,84.3z M457,100.8h-7V82c0-6.4-2.3-9.6-7-9.6c-2.3,0-4.3,0.9-5.8,2.7c-1.5,1.8-2.3,4-2.3,6.8v19h-7.1V67.5h7.1V73h0.2
			c2.5-4.1,6.1-6.2,10.8-6.2c7.4,0,11.2,4.6,11.2,13.7V100.8z M494.2,86h-22.8c0.3,6.7,3.7,10.1,10.3,10.1c3.7,0,7-1.1,10.1-3.3v5.8
			c-3,1.9-6.9,2.9-11.7,2.9c-4.9,0-8.8-1.5-11.6-4.5c-2.8-3-4.2-7.2-4.2-12.6c0-5.1,1.5-9.4,4.5-12.7c3-3.3,6.8-5,11.3-5
			c4.5,0,8,1.4,10.5,4.3c2.5,2.8,3.7,6.7,3.7,11.7L494.2,86L494.2,86z M487.3,80.9c0-2.8-0.7-5-2-6.5s-3.1-2.3-5.5-2.3
			c-2.2,0-4,0.8-5.6,2.4c-1.6,1.6-2.6,3.8-3,6.4L487.3,80.9L487.3,80.9z M500,93c3.1,2.1,6.3,3.2,9.7,3.2c4.4,0,6.6-1.4,6.6-4.1
			c0-1.1-0.5-2.1-1.4-2.8c-0.9-0.7-3-1.7-6.2-2.9c-3.4-1.3-5.7-2.7-6.9-4.2c-1.2-1.5-1.8-3.3-1.8-5.6c0-3.1,1.3-5.5,3.8-7.3
			c2.6-1.8,5.7-2.7,9.5-2.7c2.9,0,5.6,0.5,8.2,1.4v6.3c-2.5-1.6-5.4-2.4-8.5-2.4c-1.8,0-3.2,0.4-4.3,1.1c-1.1,0.7-1.7,1.7-1.7,2.9
			c0,1.2,0.4,2.1,1.2,2.8c0.8,0.7,2.7,1.6,5.6,2.7c3.6,1.3,6.1,2.7,7.4,4.2c1.3,1.5,2,3.4,2,5.6c0,3.1-1.3,5.6-3.8,7.4
			c-2.6,1.8-5.9,2.7-10.1,2.7c-3.6,0-6.7-0.6-9.3-1.9V93L500,93z"/>
		<path class="st3" d="M240.6,165.2c-4.6,4.5-10.2,6.7-16.8,6.7c-5,0-9-1.2-12-3.7c-3-2.4-4.4-5.8-4.4-10.1c0-6.3,3.7-10.9,11-14
			c-3.6-2.8-5.5-6.1-5.5-9.8c0-3.3,1.2-5.8,3.5-7.8c2.3-1.9,5.4-2.9,9.3-2.9c3.6,0,6.5,0.9,8.8,2.8s3.4,4.2,3.4,7.2
			c0,4.8-2.9,8.4-8.7,10.7c4.4,1.8,8.5,5.6,12.3,11.3c3.4-4.7,5.2-10.2,5.2-16.5c0-1.6-0.2-3.1-0.6-4.5h6.4c0.3,1.2,0.5,2.6,0.5,4.3
			c0,7.6-2.7,14.8-8.2,21.7c1.5,2,2.9,3.3,4,4.1c1.1,0.8,2.4,1.2,3.7,1.2c1.4,0,3-0.3,4.8-1v5.9c-1.9,0.7-3.8,1.1-5.8,1.1
			c-2,0-3.8-0.5-5.4-1.5C244.3,169.4,242.5,167.7,240.6,165.2L240.6,165.2z M224.3,141.7c4.8-1.6,7.1-4.1,7.1-7.4
			c0-1.6-0.5-2.9-1.6-3.9c-1.1-1-2.5-1.5-4.1-1.5c-1.9,0-3.4,0.5-4.5,1.6c-1.2,1-1.8,2.4-1.8,4.1C219.4,137.5,221,139.9,224.3,141.7
			L224.3,141.7z M237.4,160.3c-4.1-6.6-8.8-10.9-14.3-13c-5.6,2.3-8.5,5.8-8.5,10.5c0,2.5,0.9,4.5,2.6,6c1.7,1.5,4,2.2,6.8,2.2
			C229.3,166.2,233.7,164.2,237.4,160.3L237.4,160.3z M277.5,161.5c3.6,2.9,7.8,4.3,12.6,4.3c6.2,0,9.3-2.1,9.3-6.3
			c0-1.2-0.3-2.3-1-3.3c-0.7-1-1.6-1.8-2.8-2.6c-1.2-0.7-3.4-1.9-6.8-3.5c-4.2-2-7.1-4-8.8-6.1c-1.7-2.1-2.5-4.5-2.5-7.3
			c0-4,1.6-7.2,4.8-9.5c3.2-2.3,7.2-3.5,12.1-3.5c4.7,0,8.2,0.6,10.6,1.7v7.4c-2.9-2-6.5-3-10.7-3c-2.7,0-5,0.5-6.6,1.7
			c-1.7,1.1-2.5,2.6-2.5,4.5c0,1.7,0.6,3.2,1.9,4.3c1.2,1.1,3.8,2.6,7.8,4.5c4.6,2.2,7.8,4.3,9.6,6.5c1.8,2.2,2.7,4.7,2.7,7.5
			c0,4.2-1.5,7.4-4.6,9.7s-7.3,3.3-12.7,3.3c-2,0-4.2-0.2-6.6-0.7c-2.4-0.5-4.3-1.1-5.6-1.9L277.5,161.5L277.5,161.5z M342.6,156.4
			h-22.8c0.3,6.7,3.7,10.1,10.3,10.1c3.7,0,7-1.1,10.1-3.3v5.8c-3,1.9-6.9,2.9-11.7,2.9c-4.9,0-8.8-1.5-11.6-4.5
			c-2.8-3-4.2-7.2-4.2-12.6c0-5.1,1.5-9.3,4.5-12.7c3-3.3,6.8-5,11.3-5c4.5,0,8,1.4,10.5,4.3c2.5,2.8,3.7,6.7,3.7,11.7L342.6,156.4
			L342.6,156.4z M335.8,151.3c0-2.8-0.7-5-2-6.5c-1.3-1.5-3.1-2.3-5.5-2.3c-2.1,0-4,0.8-5.6,2.4c-1.6,1.6-2.6,3.8-2.9,6.4H335.8z
			 M368.9,144.6c-1-0.7-2.4-1-4.1-1c-2.3,0-4.1,1-5.6,3c-1.4,2-2.1,4.7-2.1,8v16.6H350v-33.3h7.1v6.6h0.2c1.7-4.8,4.5-7.2,8.7-7.2
			c1.2,0,2.2,0.1,2.9,0.4V144.6L368.9,144.6z M405.1,137.9l-13,33.3h-7.5l-12.3-33.3h7.7l7.5,22.9c0.6,2,1,3.7,1.2,5.1h0.2
			c0.2-1.6,0.5-3.3,1.1-4.9l7.8-23H405.1L405.1,137.9z M409.6,126.5c0-1.2,0.4-2.2,1.2-2.9s1.8-1.2,3.1-1.2c1.2,0,2.3,0.4,3.1,1.2
			c0.8,0.8,1.3,1.8,1.3,2.9c0,1.2-0.4,2.2-1.3,2.9s-1.9,1.2-3.1,1.2s-2.3-0.4-3.1-1.2C410,128.6,409.6,127.6,409.6,126.5z
			 M410.2,171.1v-33.3h7.1v33.3H410.2z M450.8,169.7c-2.4,1.5-5.6,2.2-9.4,2.2c-4.8,0-8.8-1.5-11.8-4.6c-3-3.1-4.5-7.1-4.5-12
			c0-5.5,1.6-10,4.8-13.3c3.2-3.3,7.5-4.9,12.9-4.9c3.3,0,6,0.5,8,1.6v6.6c-2.4-1.7-4.9-2.5-7.7-2.5c-3.2,0-5.9,1.1-7.9,3.3
			s-3,5.1-3,8.8c0,3.6,1,6.4,2.9,8.4c1.9,2,4.5,3,7.7,3c2.8,0,5.5-0.9,7.9-2.7V169.7L450.8,169.7z M457.7,126.5
			c0-1.2,0.4-2.2,1.2-2.9s1.8-1.2,3.1-1.2c1.2,0,2.3,0.4,3.1,1.2c0.8,0.8,1.3,1.8,1.3,2.9c0,1.2-0.4,2.2-1.3,2.9s-1.9,1.2-3.1,1.2
			s-2.3-0.4-3.1-1.2C458.1,128.6,457.7,127.6,457.7,126.5z M458.3,171.1v-33.3h7.1v33.3H458.3z M473.2,154.8c0-5.5,1.6-9.8,4.7-13
			c3.1-3.2,7.4-4.7,12.7-4.7c5.1,0,9.1,1.5,12,4.6c3,3.1,4.4,7.3,4.4,12.6c0,5.4-1.5,9.6-4.7,12.8c-3.1,3.2-7.3,4.8-12.5,4.8
			c-5.1,0-9.2-1.5-12.2-4.7C474.7,164.2,473.2,160,473.2,154.8L473.2,154.8z M480.4,154.7c0,3.6,0.9,6.5,2.7,8.5
			c1.8,2,4.2,3.1,7.2,3.1c6.4,0,9.6-3.9,9.6-11.8c0-3.8-0.8-6.7-2.5-8.7c-1.6-2-4-3-7.1-3c-3.1,0-5.5,1.1-7.3,3.2
			C481.3,148.1,480.4,151,480.4,154.7L480.4,154.7z M513.4,163.4c3.1,2.1,6.3,3.2,9.7,3.2c4.4,0,6.6-1.4,6.6-4.1
			c0-1.1-0.5-2.1-1.4-2.8c-0.9-0.7-3-1.7-6.2-2.9c-3.4-1.3-5.7-2.7-6.8-4.2c-1.2-1.5-1.8-3.3-1.8-5.5c0-3.1,1.3-5.5,3.8-7.3
			c2.6-1.8,5.7-2.7,9.5-2.7c2.9,0,5.6,0.5,8.2,1.4v6.3c-2.5-1.6-5.4-2.3-8.5-2.3c-1.8,0-3.2,0.4-4.3,1.1c-1.1,0.8-1.7,1.7-1.7,2.9
			c0,1.2,0.4,2.1,1.2,2.8c0.8,0.7,2.7,1.6,5.6,2.7c3.6,1.3,6.1,2.7,7.4,4.2c1.3,1.5,2,3.4,2,5.6c0,3.1-1.3,5.6-3.8,7.4
			c-2.6,1.8-5.9,2.7-10.1,2.7c-3.6,0-6.7-0.6-9.3-1.8L513.4,163.4L513.4,163.4z"/>
	</g>
</g>
</svg>
