<?xml version="1.0" encoding="utf-8"?>
<!-- Generator: Adobe Illustrator 24.0.2, SVG Export Plug-In . SVG Version: 6.00 Build 0)  -->
<svg version="1.1" id="Capa_1" xmlns="http://www.w3.org/2000/svg" xmlns:xlink="http://www.w3.org/1999/xlink" x="0px" y="0px"
	 viewBox="0 0 840 570" style="enable-background:new 0 0 840 570;" xml:space="preserve">
<style type="text/css">
	.st0{fill:#666666;}
	.st1{fill:#2CB1FF;}
	.st2{fill-rule:evenodd;clip-rule:evenodd;fill:#666666;}
	.st3{fill-rule:evenodd;clip-rule:evenodd;fill:#2CB1FF;}
</style>
<g id="Capa_x0020_1">
	<g id="_2182646124560">
		<path class="st0" d="M10.2,534.2c4.4,3.6,9.6,5.3,15.5,5.3c7.6,0,11.4-2.6,11.4-7.8c0-1.5-0.4-2.8-1.3-4.1c-0.8-1.2-2-2.3-3.4-3.2
			c-1.4-0.9-4.2-2.3-8.4-4.3c-5.2-2.5-8.8-5-10.8-7.5c-2.1-2.5-3.1-5.5-3.1-8.9c0-4.9,2-8.8,5.8-11.7c3.9-2.8,8.9-4.3,15-4.3
			c5.7,0,10.1,0.7,13,2.1v9.1c-3.5-2.4-7.9-3.7-13.2-3.7c-3.4,0-6.1,0.7-8.2,2c-2.1,1.3-3.1,3.2-3.1,5.6c0,2.2,0.8,3.9,2.3,5.3
			c1.5,1.4,4.7,3.2,9.6,5.5c5.7,2.7,9.6,5.3,11.8,8c2.2,2.7,3.3,5.7,3.3,9.2c0,5.2-1.9,9.1-5.6,11.9c-3.8,2.7-8.9,4.1-15.6,4.1
			c-2.4,0-5.2-0.3-8.2-0.9c-3-0.6-5.3-1.4-6.9-2.4L10.2,534.2L10.2,534.2z M53.5,525.9c0-6.7,1.9-12,5.8-16c3.8-3.9,9-5.8,15.7-5.8
			c6.3,0,11.2,1.9,14.8,5.7c3.6,3.8,5.4,8.9,5.4,15.5c0,6.6-1.9,11.9-5.7,15.8s-8.9,5.9-15.3,5.9c-6.3,0-11.3-1.9-15-5.7
			C55.3,537.4,53.5,532.3,53.5,525.9L53.5,525.9z M62.3,525.8c0,4.5,1.1,8,3.3,10.5c2.2,2.5,5.2,3.8,8.9,3.8
			c7.9,0,11.8-4.8,11.8-14.5c0-4.7-1-8.3-3-10.7s-4.9-3.7-8.8-3.7c-3.8,0-6.8,1.3-9,3.9C63.4,517.6,62.3,521.2,62.3,525.8
			L62.3,525.8z M104.7,546v-60.6h8.7V546H104.7z M160.9,546h-8.7v-6.4H152c-2.8,4.9-7,7.4-12.6,7.4c-9.6,0-14.5-5.8-14.5-17.4v-24.5
			h8.7v23.5c0,7.7,2.9,11.5,8.8,11.5c2.9,0,5.2-1,7-3.1c1.8-2.1,2.7-4.8,2.7-8.3v-23.5h8.7L160.9,546L160.9,546z M202.2,544.3
			c-3,1.8-6.9,2.7-11.6,2.7c-6,0-10.8-1.9-14.5-5.7c-3.7-3.8-5.6-8.7-5.6-14.8c0-6.8,2-12.3,6-16.3c4-4,9.3-6.1,15.9-6.1
			c4.1,0,7.4,0.6,9.9,2v8.1c-2.9-2.1-6-3.1-9.4-3.1c-4,0-7.2,1.3-9.7,4c-2.5,2.7-3.7,6.3-3.7,10.8c0,4.4,1.2,7.9,3.5,10.4
			c2.4,2.5,5.5,3.8,9.5,3.8c3.5,0,6.7-1.1,9.8-3.3V544.3L202.2,544.3z M210.6,491c0-1.5,0.5-2.7,1.5-3.6c1-0.9,2.3-1.4,3.8-1.4
			c1.5,0,2.8,0.5,3.8,1.4c1,1,1.5,2.2,1.5,3.6c0,1.5-0.5,2.7-1.5,3.6c-1,1-2.3,1.4-3.8,1.4c-1.5,0-2.8-0.5-3.8-1.4
			C211.1,493.7,210.6,492.5,210.6,491L210.6,491z M211.4,546v-40.9h8.7V546H211.4z M229.7,525.9c0-6.7,1.9-12,5.8-16
			c3.8-3.9,9.1-5.8,15.7-5.8c6.2,0,11.2,1.9,14.8,5.7c3.6,3.8,5.4,8.9,5.4,15.5c0,6.6-1.9,11.9-5.7,15.8c-3.8,4-8.9,5.9-15.3,5.9
			c-6.3,0-11.3-1.9-15-5.7C231.6,537.4,229.7,532.3,229.7,525.9L229.7,525.9z M238.6,525.8c0,4.5,1.1,8,3.3,10.5
			c2.2,2.5,5.2,3.8,8.9,3.8c7.9,0,11.8-4.8,11.8-14.5c0-4.7-1-8.3-3-10.7s-5-3.7-8.8-3.7c-3.8,0-6.8,1.3-9,3.9
			C239.7,517.6,238.6,521.2,238.6,525.8z M317,546h-8.7v-23.1c0-7.9-2.9-11.8-8.6-11.8c-2.9,0-5.3,1.1-7.2,3.3
			c-1.9,2.2-2.8,5-2.8,8.3V546h-8.7v-40.9h8.7v6.7h0.2c3-5.1,7.5-7.7,13.3-7.7c9.2,0,13.7,5.6,13.7,16.9L317,546L317,546z
			 M362.8,527.9h-28.1c0.4,8.3,4.6,12.4,12.6,12.4c4.5,0,8.7-1.4,12.4-4.1v7.2c-3.7,2.4-8.5,3.6-14.4,3.6c-6.1,0-10.8-1.8-14.3-5.5
			c-3.4-3.7-5.1-8.9-5.1-15.6c0-6.3,1.8-11.5,5.5-15.6c3.7-4.1,8.3-6.1,13.9-6.1c5.5,0,9.8,1.7,12.9,5.2c3.1,3.5,4.6,8.3,4.6,14.4
			V527.9L362.8,527.9z M354.3,521.6c0-3.5-0.8-6.2-2.4-8.1c-1.6-1.9-3.8-2.8-6.7-2.8c-2.6,0-4.9,1-6.9,3c-2,2-3.1,4.6-3.6,7.9H354.3
			L354.3,521.6z M369.9,536.5c3.8,2.6,7.8,3.9,11.9,3.9c5.4,0,8.1-1.7,8.1-5c0-1.4-0.6-2.5-1.7-3.5c-1.1-0.9-3.7-2.1-7.6-3.6
			c-4.2-1.6-7-3.3-8.4-5.1c-1.5-1.8-2.2-4.1-2.2-6.8c0-3.8,1.6-6.8,4.7-9s7.1-3.3,11.7-3.3c3.6,0,6.9,0.6,10,1.8v7.7
			c-3.1-1.9-6.6-2.9-10.5-2.9c-2.2,0-4,0.5-5.3,1.4c-1.4,0.9-2,2.1-2,3.6c0,1.5,0.5,2.6,1.5,3.4c1,0.8,3.3,2,6.9,3.3
			c4.5,1.6,7.5,3.4,9.1,5.2c1.6,1.8,2.4,4.1,2.4,6.9c0,3.9-1.6,6.9-4.7,9.1c-3.1,2.2-7.3,3.3-12.4,3.3c-4.4,0-8.2-0.8-11.5-2.3
			L369.9,536.5L369.9,536.5z"/>
		<path class="st1" d="M465.5,538.7c-5.7,5.5-12.5,8.3-20.7,8.3c-6.2,0-11.1-1.5-14.8-4.5s-5.5-7.1-5.5-12.4
			c0-7.7,4.5-13.4,13.5-17.2c-4.5-3.5-6.7-7.5-6.7-12c0-4,1.4-7.2,4.3-9.6c2.9-2.4,6.7-3.6,11.4-3.6c4.4,0,8,1.1,10.8,3.4
			c2.8,2.3,4.2,5.2,4.2,8.9c0,5.9-3.5,10.3-10.7,13.2c5.5,2.3,10.5,6.9,15.1,13.8c4.2-5.8,6.3-12.5,6.3-20.4c0-2-0.2-3.8-0.7-5.5
			h7.9c0.4,1.5,0.6,3.2,0.6,5.3c0,9.4-3.4,18.2-10.1,26.6c1.9,2.4,3.5,4.1,4.9,5c1.4,1,2.9,1.4,4.5,1.4c1.7,0,3.7-0.4,5.8-1.3v7.3
			c-2.3,0.9-4.7,1.3-7.2,1.3c-2.5,0-4.7-0.6-6.7-1.8C470,543.9,467.8,541.8,465.5,538.7L465.5,538.7z M445.3,509.8
			c5.9-2,8.8-5,8.8-9.1c0-2-0.7-3.6-2-4.8c-1.4-1.2-3-1.8-5-1.8c-2.3,0-4.2,0.6-5.6,1.9c-1.4,1.3-2.2,2.9-2.2,5
			C439.4,504.7,441.3,507.6,445.3,509.8z M461.5,532.8c-5-8.1-10.9-13.4-17.6-16c-7,2.9-10.4,7.2-10.4,13c0,3.1,1.1,5.6,3.2,7.4
			c2.1,1.8,4.9,2.7,8.4,2.7C451.5,539.9,456.9,537.5,461.5,532.8z M510.8,534.2c4.4,3.6,9.6,5.3,15.5,5.3c7.6,0,11.4-2.6,11.4-7.8
			c0-1.5-0.4-2.8-1.3-4.1c-0.8-1.2-2-2.3-3.4-3.2c-1.4-0.9-4.2-2.3-8.4-4.3c-5.2-2.5-8.8-5-10.8-7.5c-2-2.5-3.1-5.5-3.1-8.9
			c0-4.9,2-8.8,5.9-11.7c3.9-2.8,8.9-4.3,15-4.3c5.8,0,10.1,0.7,13,2.1v9.1c-3.5-2.4-7.9-3.7-13.2-3.7c-3.4,0-6.1,0.7-8.2,2
			c-2.1,1.3-3.1,3.2-3.1,5.6c0,2.2,0.8,3.9,2.3,5.3c1.5,1.4,4.7,3.2,9.6,5.5c5.7,2.7,9.6,5.3,11.8,8c2.2,2.7,3.3,5.7,3.3,9.2
			c0,5.2-1.9,9.1-5.6,11.9c-3.8,2.7-9,4.1-15.6,4.1c-2.4,0-5.2-0.3-8.2-0.9c-3-0.6-5.3-1.4-6.9-2.4V534.2L510.8,534.2z M591,527.9
			h-28.1c0.4,8.3,4.6,12.4,12.6,12.4c4.5,0,8.7-1.4,12.4-4.1v7.2c-3.7,2.4-8.5,3.6-14.4,3.6c-6.1,0-10.8-1.8-14.3-5.5
			c-3.4-3.7-5.2-8.9-5.2-15.6c0-6.3,1.8-11.5,5.5-15.6c3.7-4.1,8.3-6.1,13.9-6.1c5.5,0,9.8,1.7,12.9,5.2c3.1,3.5,4.6,8.3,4.6,14.4
			V527.9L591,527.9z M582.6,521.6c0-3.5-0.8-6.2-2.4-8.1c-1.6-1.9-3.8-2.8-6.7-2.8c-2.6,0-4.9,1-6.9,3c-2,2-3.2,4.6-3.6,7.9H582.6z
			 M623.4,513.4c-1.3-0.8-3-1.3-5.1-1.3c-2.8,0-5.1,1.2-6.8,3.7c-1.7,2.5-2.6,5.7-2.6,9.8V546h-8.7v-40.9h8.7v8.1h0.2
			c2-5.9,5.6-8.8,10.7-8.8c1.5,0,2.7,0.2,3.6,0.5V513.4z M667.9,505.1L652,546h-9.2l-15.2-40.9h9.4l9.2,28.2
			c0.8,2.4,1.3,4.5,1.4,6.3h0.2c0.2-2,0.7-4,1.3-6.1l9.6-28.4H667.9L667.9,505.1z M673.4,491c0-1.5,0.5-2.7,1.5-3.6
			c1-0.9,2.3-1.4,3.8-1.4c1.5,0,2.8,0.5,3.8,1.4c1,1,1.5,2.2,1.5,3.6c0,1.5-0.5,2.7-1.5,3.6c-1,1-2.3,1.4-3.8,1.4
			c-1.5,0-2.8-0.5-3.8-1.4C673.9,493.7,673.4,492.5,673.4,491L673.4,491z M674.3,546v-40.9h8.7V546H674.3z M724.2,544.3
			c-3,1.8-6.9,2.7-11.6,2.7c-6,0-10.8-1.9-14.5-5.7c-3.7-3.8-5.5-8.7-5.5-14.8c0-6.8,2-12.3,6-16.3c4-4,9.3-6.1,15.9-6.1
			c4.1,0,7.4,0.6,9.9,2v8.1c-2.9-2.1-6-3.1-9.4-3.1c-4,0-7.2,1.3-9.7,4c-2.5,2.7-3.7,6.3-3.7,10.8c0,4.4,1.2,7.9,3.5,10.4
			c2.4,2.5,5.5,3.8,9.5,3.8c3.5,0,6.7-1.1,9.8-3.3L724.2,544.3L724.2,544.3z M732.6,491c0-1.5,0.5-2.7,1.5-3.6
			c1-0.9,2.3-1.4,3.8-1.4c1.5,0,2.8,0.5,3.8,1.4c1,1,1.6,2.2,1.6,3.6c0,1.5-0.5,2.7-1.6,3.6c-1,1-2.3,1.4-3.8,1.4
			c-1.5,0-2.8-0.5-3.8-1.4C733.1,493.7,732.6,492.5,732.6,491L732.6,491z M733.5,546v-40.9h8.7V546H733.5z M751.8,525.9
			c0-6.7,1.9-12,5.8-16c3.8-3.9,9.1-5.8,15.7-5.8c6.2,0,11.2,1.9,14.8,5.7c3.6,3.8,5.5,8.9,5.5,15.5c0,6.6-1.9,11.9-5.7,15.8
			s-8.9,5.9-15.3,5.9c-6.3,0-11.3-1.9-15-5.7C753.7,537.4,751.8,532.3,751.8,525.9L751.8,525.9z M760.6,525.8c0,4.5,1.1,8,3.3,10.5
			c2.2,2.5,5.2,3.8,8.9,3.8c7.9,0,11.8-4.8,11.8-14.5c0-4.7-1-8.3-3-10.7s-5-3.7-8.8-3.7c-3.8,0-6.8,1.3-9,3.9
			C761.7,517.6,760.6,521.2,760.6,525.8L760.6,525.8z M801.2,536.5c3.8,2.6,7.8,3.9,11.9,3.9c5.4,0,8.2-1.7,8.2-5
			c0-1.4-0.6-2.5-1.7-3.5c-1.1-0.9-3.7-2.1-7.7-3.6c-4.2-1.6-7-3.3-8.4-5.1c-1.5-1.8-2.2-4.1-2.2-6.8c0-3.8,1.6-6.8,4.7-9
			s7.1-3.3,11.7-3.3c3.6,0,6.9,0.6,10,1.8v7.7c-3.1-1.9-6.6-2.9-10.5-2.9c-2.2,0-4,0.5-5.3,1.4c-1.3,0.9-2,2.1-2,3.6
			c0,1.5,0.5,2.6,1.5,3.4c1,0.8,3.3,2,6.9,3.3c4.5,1.6,7.5,3.4,9.1,5.2c1.6,1.8,2.4,4.1,2.4,6.9c0,3.9-1.6,6.9-4.7,9.1
			c-3.2,2.2-7.3,3.3-12.4,3.3c-4.4,0-8.2-0.8-11.5-2.3L801.2,536.5L801.2,536.5z"/>
	</g>
	<g id="_2182646122320">
		<path class="st2" d="M566.6,235.5c0-81-65.6-146.6-146.6-146.6s-146.6,65.6-146.6,146.6c0,46.7,21.9,88.4,55.9,115.2
			c-26.8-24.6-43.6-59.8-43.6-99c0-74.2,60.1-134.3,134.3-134.3c74.2,0,134.3,60.1,134.3,134.3c0,39.2-16.8,74.5-43.6,99
			C544.8,323.8,566.6,282.2,566.6,235.5z"/>
		<g>
			<path class="st0" d="M346.5,292.7c9.5,7.7,20.7,11.6,33.5,11.6c16.4,0,24.6-5.6,24.6-16.9c0-3.3-0.9-6.2-2.7-8.8
				c-1.8-2.6-4.3-4.9-7.3-6.9c-3.1-1.9-9.1-5.1-18.2-9.4c-11.1-5.3-18.9-10.7-23.4-16.3c-4.4-5.5-6.7-11.9-6.7-19.3
				c0-10.7,4.2-19.1,12.6-25.2c8.4-6.1,19.2-9.2,32.3-9.2c12.4,0,21.8,1.5,28.2,4.6v19.7c-7.6-5.3-17.1-7.9-28.6-7.9
				c-7.3,0-13.2,1.5-17.7,4.4c-4.5,2.9-6.7,6.9-6.7,12.1c0,4.6,1.6,8.4,4.9,11.5c3.3,3,10.2,7,20.8,12c12.3,5.8,20.8,11.5,25.5,17.3
				c4.7,5.8,7,12.4,7,19.9c0,11.2-4.1,19.8-12.2,25.7c-8.1,5.9-19.3,8.9-33.7,8.9c-5.3,0-11.1-0.6-17.6-1.9
				c-6.5-1.3-11.4-3-14.9-5.1L346.5,292.7L346.5,292.7z"/>
			<path class="st1" d="M425.8,292.7c9.5,7.7,20.7,11.6,33.6,11.6c16.4,0,24.6-5.6,24.6-16.9c0-3.3-0.9-6.2-2.7-8.8
				c-1.8-2.6-4.3-4.9-7.3-6.9c-3.1-1.9-9.2-5.1-18.2-9.4c-11.1-5.3-18.9-10.7-23.4-16.3c-4.4-5.5-6.7-11.9-6.7-19.3
				c0-10.7,4.2-19.1,12.7-25.2c8.4-6.1,19.2-9.2,32.3-9.2c12.4,0,21.8,1.5,28.2,4.6v19.7c-7.6-5.3-17.2-7.9-28.6-7.9
				c-7.3,0-13.2,1.5-17.7,4.4c-4.5,2.9-6.7,6.9-6.7,12.1c0,4.6,1.6,8.4,4.9,11.5c3.3,3,10.2,7,20.8,12c12.3,5.8,20.8,11.5,25.5,17.3
				c4.7,5.8,7,12.4,7,19.9c0,11.2-4.1,19.8-12.2,25.7c-8.1,5.9-19.3,8.9-33.7,8.9c-5.3,0-11.2-0.6-17.6-1.9
				c-6.5-1.3-11.4-3-14.9-5.1L425.8,292.7L425.8,292.7z"/>
		</g>
		<polygon class="st3" points="466.1,33.3 472.4,53.6 492.6,59.8 472.4,66 466.1,86.3 459.9,66 439.6,59.8 459.9,53.6 		"/>
		<polygon class="st3" points="502.3,13 506.5,26.8 520.3,31 506.5,35.2 502.3,49 498.1,35.2 484.3,31 498.1,26.8 		"/>
		<polygon class="st3" points="539.8,36.3 549.3,66.9 579.9,76.3 549.3,85.7 539.8,116.4 530.4,85.7 499.8,76.3 530.4,66.9 		"/>
		<path class="st3" d="M419.1,397.3c-92,0-166.5-74.6-166.5-166.5c0-40.1,14.2-76.9,37.8-105.6c-32.2,32.8-52.1,77.8-52.1,127.4
			c0,100.4,81.4,181.8,181.8,181.8c100.4,0,181.7-81.4,181.7-181.8c0-52.9-22.5-100.4-58.5-133.6c1.9,2.4,3.8,4.8,5.5,7.4
			c23.1,28.6,36.9,64.9,36.9,104.5C585.6,322.7,511.1,397.3,419.1,397.3L419.1,397.3z"/>
	</g>
</g>
</svg>
