<?xml version="1.0" encoding="utf-8"?>
<!-- Generator: Adobe Illustrator 24.0.2, SVG Export Plug-In . SVG Version: 6.00 Build 0)  -->
<svg version="1.1" id="Capa_1" xmlns="http://www.w3.org/2000/svg" xmlns:xlink="http://www.w3.org/1999/xlink" x="0px" y="0px"
	 viewBox="0 0 100 100" style="enable-background:new 0 0 100 100;" xml:space="preserve">
<style type="text/css">
	.st0{fill:#C1272D;}
	.st1{fill:#21C5FF;}
	.st2{fill:#1265AB;}
</style>
<path class="st0" d="M0,79c0,0.8,0.1,1.7,0.4,2.5H0V79z"/>
<path class="st0" d="M100,79v2.5h-0.4C99.9,80.7,100,79.8,100,79z"/>
<path class="st1" d="M100,0v79.5c0,0.8-0.1,1.7-0.4,2.5c-3,10.1-24.1,18-49.6,18S3.4,92.1,0.4,82C0.1,81.2,0,80.3,0,79.5V0H100z"/>
<g id="filled">
	<path class="st2" d="M48.4,49.6h0.4c7.9,0,14.3-6.3,14.3-14.2s-6.3-14.3-14.2-14.3s-14.3,6.3-14.3,14.2c0,7.6,6,14,13.6,14.3l0,0
		C48.2,49.6,48.3,49.6,48.4,49.6z M37.2,35.4c0-6.3,5.1-11.5,11.5-11.5S60.1,29,60.1,35.4S55,46.8,48.7,46.8
		C42.4,46.8,37.2,41.7,37.2,35.4z"/>
	<path class="st2" d="M70.6,59.6l-9.2-9.2c4.4-3.7,7-9.2,6.9-15.1c0-10.8-8.8-19.7-19.7-19.7S29,24.5,29,35.4
		c0,8.4,5.4,15.7,12.8,18.5V72c0,1.1,1.2,1.8,2.1,1.2l4.8-3.1l4.8,3.1c0.9,0.6,2.2-0.1,2.1-1.2v-8.1l5.3,5.3
		c0.7,0.8,2.1,0.3,2.3-0.7l1.1-5.6l5.6-1.1C71,61.7,71.4,60.3,70.6,59.6L70.6,59.6z M31.8,35.4c0-9.4,7.6-16.9,16.9-16.9
		S65.6,26,65.6,35.4S58,52.3,48.7,52.3S31.8,44.7,31.8,35.4L31.8,35.4z M49.5,67.2c-0.5-0.3-1.1-0.3-1.6,0l-3.4,2.2V54.6
		c2.7,0.5,5.5,0.5,8.3,0v14.8L49.5,67.2z M62.9,60.5c-0.5,0.1-0.9,0.5-1.1,1.1l-0.8,4l-5.5-5.5v-6.2c1.2-0.5,2.5-1.1,3.6-1.8
		l7.7,7.7L62.9,60.5z"/>
	<path class="st2" d="M52.3,42.3c0.9,0.5,2.2-0.4,1.9-1.5l-0.7-4.1l2.9-2.9c0.8-0.8,0.3-2.2-0.8-2.3l-4.1-0.6l-1.8-3.7
		c-0.5-1-2-1-2.5,0l-1.8,3.7l-4,0.7c-1.1,0.2-1.6,1.6-0.8,2.3l2.9,2.9L43,40.9c-0.2,1.1,1,1.9,1.9,1.5l3.6-1.9L52.3,42.3z
		 M46.3,38.7l0.3-2c0.1-0.5-0.1-0.9-0.4-1.2L44.7,34l2-0.3c0.5-0.1,0.9-0.3,1-0.8l0.9-1.8l0.9,1.8c0.2,0.4,0.5,0.7,1,0.8l2,0.3
		l-1.5,1.4c-0.3,0.3-0.5,0.8-0.4,1.2l0.3,2l-1.8-0.9c-0.4-0.2-0.9-0.2-1.2,0L46.3,38.7z"/>
</g>
</svg>
