<?xml version="1.0" encoding="utf-8"?>
<!-- Generator: Adobe Illustrator 24.0.2, SVG Export Plug-In . SVG Version: 6.00 Build 0)  -->
<svg version="1.1" id="Capa_1" xmlns="http://www.w3.org/2000/svg" xmlns:xlink="http://www.w3.org/1999/xlink" x="0px" y="0px"
	 viewBox="0 0 100 100" style="enable-background:new 0 0 100 100;" xml:space="preserve">
<style type="text/css">
	.st0{fill:#C1272D;}
	.st1{fill:#21C5FF;}
	.st2{fill:#1265AB;stroke:#1265AB;stroke-width:0.5;stroke-linecap:round;stroke-linejoin:round;stroke-miterlimit:10;}
</style>
<path class="st0" d="M0,79c0,0.8,0.1,1.7,0.4,2.5H0V79z"/>
<path class="st0" d="M100,79v2.5h-0.4C99.9,80.7,100,79.8,100,79z"/>
<path class="st1" d="M100,0v79.5c0,0.8-0.1,1.7-0.4,2.5c-3,10.1-24.1,18-49.6,18S3.4,92.1,0.4,82C0.1,81.2,0,80.3,0,79.5V0H100z"/>
<path class="st2" d="M77.5,34.2c-9.3,0-14.5,2.4-14.7,2.5c-0.3,0.1-0.5,0.4-0.6,0.7C62,37.7,62,38,62.2,38.3
	c-1.8-0.7-4.3-1.7-6.8-2.8c-4.3-1.9-7.1-1.3-10.1,1.1h-9.5c0.1-0.4,0.1-0.7,0.1-1.1c0-0.4-0.1-0.7-0.4-1c-2-1.9-10.2-2.6-12.6-2.7
	c-0.3,0-0.6,0.1-0.9,0.3c-0.2,0.2-0.4,0.5-0.4,0.9v21.4c0,0.7,0.5,1.2,1.2,1.2h7.1c0.5,0,1-0.3,1.1-0.8c0-0.1,0.1-0.4,0.3-0.9
	c0.3,0.3,0.6,0.6,0.9,0.9c1.1,1.1,2.2,2.3,2.9,2.9c4.4,3.7,9.7,7.7,10.8,8.4c0.9,0.6,2.8,1.4,4.2,1.4c1.2,0,2.1-0.3,2.7-0.8
	c0.8,0.3,1.8,0.3,2.7,0c1.1-0.4,2-1.3,2.5-2.3c0.9,0.2,2,0.1,3-0.4c1-0.5,1.6-1.2,2-2.1c0.9,0,1.9-0.3,2.7-1
	c1.1-0.9,1.5-2.3,1.3-3.6l1.9-1.3c0.1,0.4,0.2,0.8,0.3,1.1c0.1,0.5,0.6,0.9,1.1,0.9h7.1c0.7,0,1.2-0.5,1.2-1.2V35.4
	C78.6,34.7,78.1,34.2,77.5,34.2z M24,53.2V34.3c3.8,0.3,7.9,1,9.4,1.7c-0.6,5.2-3.5,14.4-4.4,17.2H24z M64.2,59
	c-0.5,0.4-1.1,0.5-1.4,0.3c-0.9-0.7-4.7-4.6-7-7c-0.5-0.5-1.2-0.5-1.7,0c-0.5,0.5-0.5,1.2,0,1.7c0.6,0.6,5,5.2,6.8,6.8
	c-0.1,0.5-0.6,0.8-0.9,0.9c-0.8,0.4-1.5,0.3-1.8,0c0,0,0,0-0.1-0.1c-1.4-1.1-5-4.9-5.8-5.8c-0.4-0.5-1.2-0.5-1.7-0.1
	c-0.5,0.4-0.5,1.2-0.1,1.7c0,0,3.5,3.8,5.5,5.6c-0.2,0.6-0.7,1.1-1.3,1.3c-0.4,0.1-0.9,0.2-1.4-0.2c0,0,0,0,0,0c0,0,0,0,0,0
	c-1.7-1.4-5.2-5.1-5.8-5.8c-0.4-0.5-1.2-0.5-1.7-0.1c-0.5,0.4-0.5,1.2-0.1,1.7c0.8,0.9,3.2,3.4,5,5.1c-0.2,0-0.3,0-0.6,0
	c-0.8,0-2.2-0.5-2.9-1c-0.8-0.5-6.1-4.5-10.6-8.2c-0.6-0.5-1.7-1.7-2.7-2.7c-0.7-0.7-1.4-1.4-1.8-1.8c1-3.3,2.4-8.3,3.2-12.4h7.3
	c-1.6,1.6-3.8,4.9-3.2,7.3c0.2,1,1,1.8,2,2.1c2.7,0.9,5.1,0,7-2.4c0.8-0.1,1.2-0.3,1.8-0.6c0.2-0.1,0.5-0.2,0.8-0.4
	c1.4,1.3,3.2,2.8,5.1,4.3c3.5,2.8,7.5,6,8.3,7.9C64.9,58.2,64.5,58.8,64.2,59z M65.9,55.1c-1.6-2.2-5-4.9-8.3-7.6
	c-2.2-1.7-4.2-3.4-5.5-4.7c-0.3-0.3-0.8-0.4-1.2-0.3c-0.8,0.3-1.3,0.5-1.7,0.7c-0.6,0.3-0.8,0.4-1.6,0.4c-0.4,0-0.7,0.2-0.9,0.5
	c-1.7,2.5-3.4,2.3-4.6,1.9c-0.4-0.1-0.4-0.3-0.5-0.4c-0.2-1,1-3.5,2.6-5.1c3.9-3.9,5.9-4.8,10.1-3c4,1.8,8,3.2,9.2,3.7
	c1.4,3.4,3.3,8.7,4.5,12.3L65.9,55.1z M76.3,55.6h-5.1c-1.1-3.7-4.5-13.2-6.3-17.2c1.8-0.6,5.7-1.7,11.4-1.8V55.6z"/>
</svg>
