<?xml version="1.0" encoding="utf-8"?>
<!-- Generator: Adobe Illustrator 24.0.2, SVG Export Plug-In . SVG Version: 6.00 Build 0)  -->
<svg version="1.1" id="Capa_1" xmlns="http://www.w3.org/2000/svg" xmlns:xlink="http://www.w3.org/1999/xlink" x="0px" y="0px"
	 viewBox="0 0 384 384" style="enable-background:new 0 0 384 384;" xml:space="preserve">
<style type="text/css">
	.st0{fill:#1265AB;}
</style>
<g>
	<g>
		<path class="st0" d="M383.9,63.3c0-0.8-0.2-1.6-0.4-2.3c-0.2-0.8-0.3-1.6-0.6-2.3c-0.1-0.2-0.1-0.5-0.2-0.7
			c-0.2-0.5-0.5-0.8-0.8-1.3c-0.4-0.7-0.8-1.4-1.3-2.1c-0.5-0.6-1-1.2-1.5-1.7c-0.5-0.5-1.1-1.1-1.7-1.5c-0.7-0.5-1.4-0.9-2.1-1.3
			c-0.4-0.2-0.8-0.6-1.3-0.8c-0.2-0.1-0.5-0.1-0.7-0.2c-0.7-0.3-1.5-0.4-2.3-0.6c-0.8-0.2-1.6-0.3-2.4-0.4c-0.2,0-0.5-0.1-0.7-0.1
			H16c-0.3,0-0.5,0.1-0.8,0.1c-0.8,0-1.6,0.2-2.3,0.4c-0.8,0.2-1.6,0.3-2.3,0.6c-0.2,0.1-0.5,0.1-0.7,0.2C9.4,49.4,9,49.8,8.6,50
			c-0.7,0.4-1.4,0.8-2.1,1.3c-0.6,0.5-1.2,1-1.7,1.5c-0.5,0.5-1.1,1.1-1.5,1.7c-0.5,0.7-0.9,1.4-1.3,2.1c-0.2,0.4-0.6,0.8-0.8,1.3
			c-0.1,0.2-0.1,0.5-0.2,0.7c-0.3,0.8-0.4,1.5-0.6,2.3c-0.2,0.8-0.3,1.5-0.4,2.3C0.1,63.5,0,63.7,0,64v256c0,1,0.1,2.1,0.3,3.1
			c0.1,0.5,0.3,0.9,0.4,1.4c0.2,0.5,0.3,1.1,0.5,1.6c0.2,0.5,0.5,1,0.8,1.5c0.2,0.4,0.4,0.8,0.7,1.2c1.2,1.8,2.7,3.3,4.4,4.4
			c0.4,0.3,0.8,0.4,1.2,0.7c0.5,0.3,1,0.6,1.5,0.8c0.5,0.2,1.1,0.3,1.6,0.5c0.5,0.1,0.9,0.3,1.4,0.4c1,0.2,2.1,0.3,3.1,0.3h352
			c1,0,2.1-0.1,3.1-0.3c0.5-0.1,0.9-0.3,1.4-0.4c0.5-0.2,1.1-0.3,1.6-0.5c0.5-0.2,1-0.5,1.5-0.8c0.4-0.2,0.8-0.4,1.2-0.7
			c1.8-1.2,3.3-2.7,4.4-4.4c0.3-0.4,0.4-0.8,0.7-1.2c0.3-0.5,0.6-1,0.8-1.5c0.2-0.5,0.3-1.1,0.5-1.6c0.1-0.5,0.3-0.9,0.4-1.4
			c0.2-1,0.3-2.1,0.3-3.1V64C384,63.7,383.9,63.5,383.9,63.3z M329.4,80L208.1,201.3c-8.9,8.8-23.3,8.8-32.1,0L54.6,80H329.4z
			 M32,102.6l89.4,89.4L32,281.4V102.6z M54.6,304l89.4-89.4l9.3,9.3c1.3,1.3,2.7,2.6,4.2,3.8c20,16.3,49,16.3,69.1,0
			c1.4-1.2,2.8-2.4,4.2-3.8l9.3-9.3l89.4,89.4H54.6z M352,281.4L262.6,192l89.4-89.4V281.4z"/>
	</g>
</g>
</svg>
