<?xml version="1.0" encoding="utf-8"?>
<!-- Generator: Adobe Illustrator 24.0.2, SVG Export Plug-In . SVG Version: 6.00 Build 0)  -->
<svg version="1.1" id="Capa_1" xmlns="http://www.w3.org/2000/svg" xmlns:xlink="http://www.w3.org/1999/xlink" x="0px" y="0px"
	 viewBox="0 0 100 100" style="enable-background:new 0 0 100 100;" xml:space="preserve">
<style type="text/css">
	.st0{fill:#C1272D;}
	.st1{fill:#21C5FF;}
	.st2{fill:#1265AB;}
</style>
<path class="st0" d="M0,79c0,0.8,0.1,1.7,0.4,2.5H0V79z"/>
<path class="st0" d="M100,79v2.5h-0.4C99.9,80.7,100,79.8,100,79z"/>
<path class="st1" d="M100,0v79.5c0,0.8-0.1,1.7-0.4,2.5c-3,10.1-24.1,18-49.6,18S3.4,92.1,0.4,82C0.1,81.2,0,80.3,0,79.5V0H100z"/>
<g id="_08-honest">
	<path class="st2" d="M76.9,37.6c-0.4-4.3-2.1-7.9-4.8-10.4c-4.6-4.1-12.7-5-22,4.1c-9.3-9.1-17.4-8.3-22-4.1
		c-2.8,2.5-4.5,6.1-4.8,10.4c-0.4,4.4,0.7,8.8,3.1,12.7c5.7,9.3,22,19.4,22.7,19.8c0.7,0.5,1.5,0.5,2.2,0c0.7-0.5,17-10.6,22.7-19.8
		C76.2,46.6,77.2,42,76.9,37.6L76.9,37.6z M70.1,47.8C65.7,54.7,53.7,63,50,65.3c-3.7-2.4-15.7-10.6-20.1-17.6
		c-4-6.4-2.6-13.6,0.9-16.7c1.4-1.3,3.2-1.9,4.9-1.9c3.7,0,8.3,2.5,12.6,7.3c0.9,0.9,2.3,0.9,3.2,0l0,0c6.6-7.2,13.3-9.2,17.6-5.5
		C72.7,34.2,74,41.4,70.1,47.8L70.1,47.8z"/>
	<path class="st2" d="M47.8,47.6l-2.9-3.2L41.7,48l4.5,4.8c0.9,0.9,2.3,0.9,3.2,0l0,0l9-9.9l-3.2-3.4L47.8,47.6z"/>
</g>
</svg>
