<?xml version="1.0" encoding="utf-8"?>
<!-- Generator: Adobe Illustrator 24.0.2, SVG Export Plug-In . SVG Version: 6.00 Build 0)  -->
<svg version="1.1" id="Capa_1" xmlns="http://www.w3.org/2000/svg" xmlns:xlink="http://www.w3.org/1999/xlink" x="0px" y="0px"
	 viewBox="0 0 512 512" style="enable-background:new 0 0 512 512;" xml:space="preserve">
<style type="text/css">
	.st0{fill:#1265AB;}
</style>
<g id="Out_line">
	<path class="st0" d="M443.1,218.8l64.2-122.6c10.5-20.2,2.8-45.2-17.4-55.7c-20.2-10.5-45.2-2.8-55.7,17.4L370,180.5
		c-6.2,11.8-6.3,26-0.2,37.8l-19.9,38L322,242.4c-4.1-2-9-0.5-11.3,3.4l-52.8,92.5c-8,14-12.3,29.7-12.5,45.7
		c-6.9-3.2-14.3-4.8-21.9-4.8c-0.3,0-0.8,0-1.1,0c-4-15.2-17.6-25.8-33.3-25.8v-68.8h8.6c52.3-0.1,94.5-42.4,94.6-94.6v-34.4
		c0-14.2-11.6-25.8-25.8-25.8h-66.7c-30.6-0.1-59.5,14.4-77.7,39.1c-9.7-3.1-19.7-4.7-29.8-4.7H25.8C11.6,164.1,0,175.8,0,189.9
		v34.4c0.1,52.3,42.4,94.5,94.6,94.6h43v35.5c-5.9,1.5-11.4,4.6-15.7,9c-18.2-5.6-37.4,4.6-43,22.8c-0.3,0.9-0.5,1.8-0.8,2.8
		c-18.3-5.2-37.3,5.4-42.5,23.7c-0.1,0.3-0.1,0.5-0.2,0.9H17.2v17.2H43c4.7,0,8.6-3.9,8.6-8.6l0,0c0-9.5,7.7-17.2,17.2-17.2
		S86,412.7,86,422.2h17.2c0-8.2-2.9-16.1-8.3-22.3c-1.9-9.2,4-18.4,13.3-20.3c1.2-0.2,2.4-0.3,3.5-0.3c0.3,0,0.8,0,1.1,0
		c9,0.5,16.1,8.1,16.1,17.2h17.2c0-8.6-3.2-16.9-9-23.2c6.3-4,14.5-3.3,20.2,1.5c-1.7,4.2-2.6,8.6-2.6,13H172
		c0-9.5,7.7-17.2,17.2-17.2c7.4,0,14.1,4.8,16.3,11.8c-20.1,7.5-33.5,26.8-33.5,48.4h17.2c0-19,15.4-34.4,34.4-34.4
		c10.3,0,20.2,4.6,26.7,12.7c-11.2,6-18.1,17.6-18.1,30.3h17.2c0-9.5,7.7-17.2,17.2-17.2c9.5,0,17.2,7.7,17.2,17.2h17.2
		c0-4.9-1.1-9.9-3.1-14.4c7.4-3.8,16.1-3.8,23.5,0c-2,4.5-3.1,9.4-3.1,14.4h17.2c0-9.5,7.7-17.2,17.2-17.2s17.2,7.7,17.2,17.2h17.2
		c0-4.5-0.9-8.9-2.6-13c7.2-6.1,18.1-5.4,24.2,1.8c2.7,3.1,4.2,7.1,4.2,11.2c0,4.7,3.9,8.6,8.6,8.6l0,0h68.8v-17.2h-61.3
		c-4.7-18.4-23.5-29.5-41.9-24.7c-2.4,0.6-4.6,1.5-6.8,2.6c2-3.3,4-6.8,5.7-10.3l43.3-92.9c1.9-4.2,0.2-9.2-4-11.3l-32.4-16.2
		l19.7-37.5C425.6,238.4,437,230.5,443.1,218.8z M172,358c-1.5,0.9-2.9,1.8-4.3,2.9c-3.8-3-8.2-5.3-12.9-6.5v-44.1
		c0-4.7-3.9-8.6-8.6-8.6l0,0H129c-42.7,0-77.4-34.7-77.4-77.4v-8.6H34.4v8.6c0,28.3,12.7,55.1,34.5,73c-31-11-51.7-40.2-51.7-73
		v-34.4c0-4.7,3.9-8.6,8.6-8.6h66.7c43.9,0,79.6,35.7,79.6,79.6V358z M138.6,175.9c15.1-18.4,37.6-29,61.4-28.9h66.7
		c4.7,0,8.6,3.9,8.6,8.6v34.4c0,32.8-20.8,62.1-51.7,73c21.8-18,34.5-44.7,34.5-73v-8.6h-17.2v8.6c-0.1,32.8-20.8,62-51.6,73v-2
		C189.2,225.4,169.8,192.8,138.6,175.9z M410.2,305.7l-39.8,85.4c-2.5,5.4-5.6,10.3-9.2,15.1c-9.9-2.5-20.3-0.5-28.6,5.5
		c-6.9-4.3-14.7-6.6-22.8-6.6c-0.4,0-0.8,0-1.2,0l25.9-47.5l-15.1-8.3l-33.5,61.5c-5.2-3.4-11.2-5.5-17.4-5.8
		c-1.3-2.4-2.9-4.5-4.5-6.7c-3-17.7,0.1-35.9,9-51.5l48.8-85.4l20.1,10.2l-16.2,31.1c-6.1,11.7-1.6,26.2,10.1,32.5
		c11.7,6.1,26.2,1.6,32.5-10.1l0,0l16.7-31.9L410.2,305.7z M353,317c-1.2,2.3-3.5,3.7-6.1,3.7c-1.3,0-2.7-0.4-3.8-1.2
		c-2.9-1.9-3.9-5.7-2.3-8.8l40.9-78.1c2.6,1.9,5.5,3.7,8.5,4.9c1.2,0.5,2.4,1,3.5,1.4L353,317z M397.1,221.8
		c-12.3-5.3-17.8-19.4-12.6-31.6c0.2-0.5,0.5-1.1,0.8-1.7l64.2-122.6c5.9-11.1,19.2-15.8,30.8-11c12.3,5.3,17.8,19.4,12.6,31.6
		c-0.2,0.5-0.5,1.1-0.8,1.7l-64.2,122.6C422,221.9,408.7,226.6,397.1,221.8L397.1,221.8z"/>
</g>
</svg>
