<?xml version="1.0" encoding="utf-8"?>
<!-- Generator: Adobe Illustrator 24.0.2, SVG Export Plug-In . SVG Version: 6.00 Build 0)  -->
<svg version="1.1" id="Capa_1" xmlns="http://www.w3.org/2000/svg" xmlns:xlink="http://www.w3.org/1999/xlink" x="0px" y="0px"
	 viewBox="0 0 512 512" style="enable-background:new 0 0 512 512;" xml:space="preserve">
<style type="text/css">
	.st0{fill:#1265AB;}
</style>
<g id="outline">
	<path class="st0" d="M440,240.6V232c0-48.6-39.4-88-88-88s-88,39.4-88,88v32h-32c-4.4,0-8,3.6-8,8v32c0,4.4,3.6,8,8,8h0.8l7.6,72
		H208V40c0-13.3-10.7-24-24-24s-24,10.7-24,24v344H80c-8.8,0-16,7.2-16,16v23l-15.8,63c-1.1,4.3,1.5,8.6,5.8,9.7
		c0.6,0.2,1.3,0.2,1.9,0.2h376c4.4,0,8-3.6,8-8v-31.6l11.3-107.3c7.9-4.3,12.8-12.6,12.7-21.6V270C464,255.7,454,243.5,440,240.6z
		 M280,232c0-39.8,32.2-72,72-72s72,32.2,72,72v8h-74c-14.3,0-26.5,10-29.4,24H280V232z M240,280h80v16h-80V280z M248.9,312H320
		v15.6c0,6.6,2.7,12.9,7.4,17.5c4.5,4.5,10.6,7,17,6.9c5.8-0.1,11.3-2.3,15.6-6.1c9.1,8.2,22.9,8.2,32,0c9.1,8.2,22.9,8.2,32,0
		c3.1,2.8,6.9,4.7,11,5.6L424.8,448H310.2l-6.2-25v-23c0-8.8-7.2-16-16-16h-31.5L248.9,312z M176,40c0-4.4,3.6-8,8-8s8,3.6,8,8v344
		h-16V40z M80,400h208v16H80V400z M98.2,480l12-48h15.5l-12,48H98.2z M78.2,432h15.5l-12,48H66.2L78.2,432z M142.2,432h16.7l-6,48
		h-22.7L142.2,432z M169.1,480l6-48h17.9l6,48H169.1z M215.1,480l-6-48h16.7l12,48H215.1z M254.2,480l-12-48h15.5l12,48H254.2z
		 M286.2,480l-12-48h15.5l12,48H286.2z M424,480H318.2l-4-16H424V480z M448,304v23.5c0.1,4.4-3.2,8.1-7.6,8.4
		c-4.4,0.2-8.2-3.2-8.4-7.6c0-0.1,0-0.3,0-0.4v-32h-16v32c0,4.4-3.6,8-8,8s-8-3.6-8-8v-32h-16v32c0,4.4-3.6,8-8,8s-8-3.6-8-8v-32
		h-16v32c0,4.4-3.5,7.9-7.9,8H344c-2,0-4-0.8-5.4-2.3c-1.6-1.6-2.6-3.8-2.6-6.1V270c0-7.7,6.3-14,14-14h84c7.7,0,14,6.3,14,14
		L448,304z"/>
	<rect x="392" y="392" class="st0" width="16" height="40"/>
	<rect x="392" y="360" class="st0" width="16" height="16"/>
	<path class="st0" d="M96.4,274.5c1.4,4.2,5.9,6.5,10.1,5.1c2.4-0.8,4.3-2.7,5.1-5.1c4.3-12.7,14.2-22.7,26.9-26.9
		c4.2-1.4,6.5-5.9,5.1-10.1c-0.8-2.4-2.7-4.3-5.1-5.1c-12.7-4.3-22.7-14.2-26.9-26.9c-1.4-4.2-5.9-6.5-10.1-5.1
		c-2.4,0.8-4.3,2.7-5.1,5.1c-4.3,12.7-14.2,22.7-26.9,26.9c-4.2,1.4-6.5,5.9-5.1,10.1c0.8,2.4,2.7,4.3,5.1,5.1
		C82.2,251.9,92.1,261.8,96.4,274.5z M104,225.6c3.9,5.6,8.8,10.5,14.4,14.4c-5.6,3.9-10.5,8.8-14.4,14.4
		c-3.9-5.6-8.8-10.5-14.4-14.4C95.2,236.1,100.1,231.2,104,225.6z"/>
	<path class="st0" d="M490.5,136.4c-12.7-4.3-22.7-14.2-26.9-26.9c-1.4-4.2-5.9-6.5-10.1-5.1c-2.4,0.8-4.3,2.7-5.1,5.1
		c-4.3,12.7-14.2,22.7-26.9,26.9c-4.2,1.4-6.5,5.9-5.1,10.1c0.8,2.4,2.7,4.3,5.1,5.1c12.7,4.3,22.7,14.2,26.9,26.9
		c1.4,4.2,5.9,6.5,10.1,5.1c2.4-0.8,4.3-2.7,5.1-5.1c4.3-12.7,14.2-22.7,26.9-26.9c4.2-1.4,6.5-5.9,5.1-10.1
		C494.8,139.1,492.9,137.2,490.5,136.4z M456,158.4c-3.9-5.6-8.8-10.5-14.4-14.4c5.6-3.9,10.5-8.8,14.4-14.4
		c3.9,5.6,8.8,10.5,14.4,14.4C464.8,147.9,459.9,152.8,456,158.4z"/>
	<path class="st0" d="M56,376c3.4,0,6.5-2.2,7.6-5.5c4.3-12.7,14.2-22.7,26.9-26.9c4.2-1.4,6.5-5.9,5.1-10.1
		c-0.8-2.4-2.7-4.3-5.1-5.1c-12.7-4.3-22.7-14.2-26.9-26.9c-1.4-4.2-5.9-6.5-10.1-5.1c-2.4,0.8-4.3,2.7-5.1,5.1
		c-4.3,12.7-14.2,22.7-26.9,26.9c-4.2,1.4-6.5,5.9-5.1,10.1c0.8,2.4,2.7,4.3,5.1,5.1c12.7,4.3,22.7,14.2,26.9,26.9
		C49.5,373.8,52.6,376,56,376z M56,321.6c3.9,5.6,8.8,10.5,14.4,14.4c-5.6,3.9-10.5,8.8-14.4,14.4c-3.9-5.6-8.8-10.5-14.4-14.4
		C47.2,332.1,52.1,327.2,56,321.6L56,321.6z"/>
</g>
</svg>
