<?xml version="1.0" encoding="utf-8"?>
<!-- Generator: Adobe Illustrator 24.0.2, SVG Export Plug-In . SVG Version: 6.00 Build 0)  -->
<svg version="1.1" id="Capa_1" xmlns="http://www.w3.org/2000/svg" xmlns:xlink="http://www.w3.org/1999/xlink" x="0px" y="0px"
	 viewBox="0 0 31.7 31.7" style="enable-background:new 0 0 31.7 31.7;" xml:space="preserve">
<style type="text/css">
	.st0{fill:#21C5FF;}
</style>
<g>
	<path class="st0" d="M22.5,0H9.2C7.9,0,6.9,1,6.9,2.3v27.1c0,1.3,1,2.3,2.3,2.3h13.3c1.3,0,2.3-1,2.3-2.3V2.3C24.8,1,23.8,0,22.5,0
		z M23.1,25.7H8.6V3.9h14.5V25.7z M18.9,2.3h-6.2V1.7h6.2L18.9,2.3L18.9,2.3z M21.6,2c0,0.3-0.3,0.6-0.6,0.6c-0.3,0-0.6-0.3-0.6-0.6
		s0.3-0.6,0.6-0.6C21.3,1.4,21.6,1.7,21.6,2z M18.7,29.2H13v-1.7h5.6V29.2z"/>
</g>
</svg>
